<svg width="24" height="24" viewBox="0 0 24 24" fill="none" xmlns="http://www.w3.org/2000/svg">
<path fill-rule="evenodd" clip-rule="evenodd" d="M8.69826 24C9.3138 24 9.54178 23.7343 9.54178 23.4003C9.54178 23.1042 9.53418 22.3299 9.52658 21.2974C6.08409 22.0414 5.35456 19.6425 5.35456 19.6425C4.79221 18.2153 3.97908 17.8357 3.97908 17.8357C2.85438 17.069 4.06267 17.0842 4.06267 17.0842C5.30136 17.1753 5.9625 18.3595 5.9625 18.3595C7.0644 20.2498 8.85784 19.7032 9.56458 19.3844C9.67857 18.5873 9.99774 18.0407 10.3473 17.7295C7.59635 17.4182 4.70861 16.3554 4.70861 11.6183C4.70861 10.267 5.18737 9.16628 5.9853 8.30085C5.85611 7.9896 5.43055 6.72942 6.10689 5.02893C6.10689 5.02893 7.14799 4.69491 9.51138 6.29671C10.4993 6.02342 11.5556 5.88677 12.6119 5.87918C13.6606 5.87918 14.7245 6.02342 15.7124 6.29671C18.0682 4.69491 19.1093 5.02893 19.1093 5.02893C19.7857 6.72942 19.3601 7.9896 19.2309 8.30085C20.0212 9.16628 20.5 10.267 20.5 11.6183C20.5 16.3706 17.6047 17.4106 14.8461 17.7219C15.2869 18.1014 15.6896 18.8606 15.6896 20.0145C15.6896 21.6694 15.6744 22.9979 15.6744 23.4079C15.6744 23.7419 15.8796 24 16.5256 24H8.69826V24Z" fill="#787B98"/>
</svg>
