<svg width="176" height="48" viewBox="0 0 176 48" fill="none" xmlns="http://www.w3.org/2000/svg">
<path d="M33.8135 33.6961H38.2041V27.6813C38.2041 24.9285 39.8747 22.9878 42.788 22.9878C43.1608 22.9878 43.4646 23.0154 43.8097 23.0704V18.9413C43.4369 18.8312 43.1056 18.8036 42.7604 18.8036C40.0957 18.8036 38.6873 20.6893 38.2041 23.0567V19.0927H33.8135V33.6961V33.6961Z" fill="#2C2D36"/>
<path d="M51.6521 33.9851C54.2617 33.9851 55.7804 32.5812 56.0151 32.0444H56.098V33.7098H60.4886V19.0789H56.098V20.7443H56.0151C55.7942 20.2076 54.2617 18.8036 51.6521 18.8036C48.3108 18.8036 44.6382 21.3087 44.6382 26.4013C44.6382 31.4801 48.3108 33.9851 51.6521 33.9851ZM48.9598 26.3875C48.9598 24.0201 50.6856 22.6713 52.5496 22.6713C54.4688 22.6713 56.1946 23.9926 56.1946 26.3875C56.1946 28.7824 54.4688 30.1037 52.5496 30.1037C50.6856 30.1037 48.9598 28.7549 48.9598 26.3875Z" fill="#2C2D36"/>
<path d="M63.1396 33.6961H67.5303V19.0789H63.1396V33.6961ZM63.1396 17.5236H67.5303V13.7248H63.1396V17.5236Z" fill="#2C2D36"/>
<path d="M76.3667 33.8612C77.3885 33.8612 78.6311 33.6685 79.1972 33.1042V29.7871C78.6587 29.9523 78.1478 30.0073 77.8165 30.0073C76.491 30.0073 76.063 29.2228 76.063 28.4933V22.5336H79.1419V19.0789H76.0492V15.3351H71.6586V19.0789H69.4771V22.5336H71.6586V29.1953C71.6724 32.5399 73.6468 33.8612 76.3667 33.8612Z" fill="#2C2D36"/>
<path d="M88.1854 33.9851C92.0375 33.9851 96.0001 31.37 96.0001 26.3875C96.0001 21.405 92.0375 18.7899 88.1854 18.7899C84.3332 18.7899 80.3706 21.405 80.3706 26.3875C80.3706 31.37 84.347 33.9851 88.1854 33.9851ZM84.706 26.3875C84.706 24.144 86.2938 22.7263 88.1854 22.7263C90.0769 22.7263 91.6647 24.1302 91.6647 26.3875C91.6647 28.6447 90.0907 30.0486 88.1854 30.0486C86.2938 30.0486 84.706 28.631 84.706 26.3875Z" fill="#2C2D36"/>
<path d="M20.2411 32.2239C15.8504 30.4289 9.72011 27.9298 8.80888 27.5708C7.3177 27.0048 6.79297 25.845 6.79297 25.0304C6.79297 24.4781 6.79297 19.3281 6.77916 15.614C4.88767 14.8961 3.36887 14.3023 2.74762 14.0538C0.566149 13.1425 0 13.7225 0 15.117C0 16.5114 0.0138083 27.4329 0.0138083 28.2612C0.0138083 29.0758 0.538533 30.2356 2.02958 30.8017C3.49315 31.3539 18.0319 37.3187 18.0319 37.3187C19.7992 38.0642 20.2411 37.153 20.2411 36.4487C20.2411 36.4349 20.2411 34.4744 20.2411 32.2239Z" fill="#398EFE"/>
<path d="M27.0203 24.7459C27.0203 22.5644 27.0203 20.6039 27.0203 20.1344C27.0203 18.9746 26.62 17.732 24.9216 17.1107C24.9216 17.1107 18.7361 14.3769 13.7518 12.4853C11.7636 11.726 10.162 11.1046 9.52678 10.8423C7.34531 9.93104 6.7793 10.5109 6.7793 11.9055C6.7793 12.361 6.7793 13.8246 6.7793 15.6196C6.84834 15.6472 6.91738 15.6748 6.98642 15.7024C11.9568 17.5939 18.1552 20.3169 18.1552 20.3169C19.8535 20.9382 20.2407 22.1885 20.2407 23.3483C20.2407 23.8177 20.2412 25.7777 20.2412 27.9593C20.2412 29.2157 20.2411 30.7764 20.2411 32.2261C22.823 33.2754 24.825 34.1071 24.825 34.1071C26.5923 34.8526 27.0341 33.9414 27.0341 33.2372C27.0203 33.2372 27.0203 27.9492 27.0203 24.7459Z" fill="#F9529E"/>
<path d="M20.2412 28.0675C20.2412 27.2627 20.2412 24.6207 20.2412 23.3932C20.2412 22.1657 19.8462 21.5704 19.5287 21.2042C19.2113 20.838 18.827 20.6222 18.5955 20.503C18.3642 20.3839 15.6922 19.2587 15.0222 18.9663C14.1187 18.5719 10.045 16.8746 8.84602 16.4232C7.64702 15.9719 6.83467 15.6366 6.76562 15.609C6.76562 19.3369 6.77943 24.4669 6.77943 25.0193C6.77943 26.0635 7.51888 27.0643 8.75571 27.5502C9.66694 27.9083 20.2412 32.2262 20.2412 32.2262C20.2412 32.2262 20.2412 29.5414 20.2412 28.0675Z" fill="#382E9D"/>
<line x1="112.5" y1="2.18557e-08" x2="112.5" y2="48" stroke="#EBEBEE"/>
<path d="M129.36 34V20H134.64C136.813 20 138.547 20.6733 139.84 22.02C141.133 23.3667 141.78 25.0267 141.78 27C141.78 28.9733 141.133 30.6333 139.84 31.98C138.56 33.3267 136.827 34 134.64 34H129.36ZM132.6 31.28H134.34C135.647 31.28 136.653 30.8667 137.36 30.04C138.08 29.2 138.44 28.1867 138.44 27C138.44 25.8133 138.08 24.8067 137.36 23.98C136.653 23.14 135.647 22.72 134.34 22.72H132.6V31.28ZM152.095 32.86C151.135 33.82 149.842 34.3 148.215 34.3C146.589 34.3 145.289 33.82 144.315 32.86C143.342 31.9 142.855 30.6733 142.855 29.18C142.855 27.6867 143.342 26.4667 144.315 25.52C145.289 24.56 146.589 24.08 148.215 24.08C149.842 24.08 151.135 24.56 152.095 25.52C153.069 26.4667 153.555 27.6867 153.555 29.18C153.555 30.6733 153.069 31.9 152.095 32.86ZM148.215 31.7C148.922 31.7 149.482 31.4667 149.895 31C150.309 30.5333 150.515 29.9267 150.515 29.18C150.515 28.4333 150.309 27.8267 149.895 27.36C149.482 26.8933 148.922 26.66 148.215 26.66C147.495 26.66 146.929 26.8933 146.515 27.36C146.115 27.8267 145.915 28.4333 145.915 29.18C145.915 29.9267 146.115 30.5333 146.515 31C146.929 31.4667 147.495 31.7 148.215 31.7ZM160.047 34.3C158.473 34.3 157.22 33.8333 156.287 32.9C155.353 31.9533 154.887 30.7133 154.887 29.18C154.887 27.6467 155.353 26.4133 156.287 25.48C157.22 24.5467 158.473 24.08 160.047 24.08C161.473 24.08 162.633 24.4333 163.527 25.14C164.42 25.8467 164.927 26.8067 165.047 28.02H161.987C161.76 27.1133 161.12 26.66 160.067 26.66C159.4 26.66 158.88 26.88 158.507 27.32C158.133 27.76 157.947 28.38 157.947 29.18C157.947 29.98 158.133 30.6 158.507 31.04C158.88 31.48 159.4 31.7 160.067 31.7C161.12 31.7 161.76 31.2733 161.987 30.42H165.047C164.927 31.6067 164.42 32.5533 163.527 33.26C162.633 33.9533 161.473 34.3 160.047 34.3ZM170.698 34.3C169.311 34.3 168.205 34 167.378 33.4C166.551 32.8 166.138 32.0333 166.138 31.1H169.178C169.178 31.4333 169.325 31.7067 169.618 31.92C169.911 32.1333 170.291 32.24 170.758 32.24C171.091 32.24 171.358 32.16 171.558 32C171.771 31.84 171.878 31.62 171.878 31.34C171.878 30.9 171.645 30.6267 171.178 30.52L168.818 29.92C168.031 29.72 167.431 29.38 167.018 28.9C166.605 28.42 166.398 27.8333 166.398 27.14C166.398 26.2333 166.771 25.5 167.518 24.94C168.265 24.3667 169.265 24.08 170.518 24.08C171.905 24.08 172.965 24.3467 173.698 24.88C174.445 25.4133 174.818 26.1467 174.818 27.08H171.798C171.798 26.7467 171.678 26.4867 171.438 26.3C171.211 26.1133 170.891 26.02 170.478 26.02C170.145 26.02 169.878 26.0933 169.678 26.24C169.478 26.3867 169.378 26.58 169.378 26.82C169.378 27.2467 169.651 27.5333 170.198 27.68L172.478 28.3C173.238 28.5 173.831 28.8333 174.258 29.3C174.698 29.7533 174.918 30.3133 174.918 30.98C174.918 31.98 174.538 32.7867 173.778 33.4C173.031 34 172.005 34.3 170.698 34.3Z" fill="#2C2D36"/>
</svg>
