<?xml version="1.0" encoding="UTF-8" standalone="no"?>
<svg
   xmlns:dc="http://purl.org/dc/elements/1.1/"
   xmlns:cc="http://creativecommons.org/ns#"
   xmlns:rdf="http://www.w3.org/1999/02/22-rdf-syntax-ns#"
   xmlns:svg="http://www.w3.org/2000/svg"
   xmlns="http://www.w3.org/2000/svg"
   xmlns:sodipodi="http://sodipodi.sourceforge.net/DTD/sodipodi-0.dtd"
   xmlns:inkscape="http://www.inkscape.org/namespaces/inkscape"
   version="1.1"
   id="Layer_1"
   x="0px"
   y="0px"
   viewBox="0 0 148 206"
   xml:space="preserve"
   sodipodi:docname="Raito_Logo_Vertical_Color1.svg"
   inkscape:version="1.0.1 (c497b03c, 2020-09-10)"
   width="148"
   height="206"><metadata
   id="metadata854"><rdf:RDF><cc:Work
       rdf:about=""><dc:format>image/svg+xml</dc:format><dc:type
         rdf:resource="http://purl.org/dc/dcmitype/StillImage" /><dc:title></dc:title></cc:Work></rdf:RDF></metadata><defs
   id="defs852" /><sodipodi:namedview
   pagecolor="#ffffff"
   bordercolor="#666666"
   borderopacity="1"
   objecttolerance="10"
   gridtolerance="10"
   guidetolerance="10"
   inkscape:pageopacity="0"
   inkscape:pageshadow="2"
   inkscape:window-width="1561"
   inkscape:window-height="989"
   id="namedview850"
   showgrid="false"
   inkscape:zoom="2.356261"
   inkscape:cx="138.35479"
   inkscape:cy="138.35479"
   inkscape:window-x="0"
   inkscape:window-y="25"
   inkscape:window-maximized="0"
   inkscape:current-layer="Layer_1"
   inkscape:document-rotation="0" />
<style
   type="text/css"
   id="style833">
	.st0{fill:#0E1111;}
</style>
<path
   class="st0"
   d="m 77.720208,2.228293 h -7 -68.1999991 v 41.1 0 34.2 H 28.420208 c -5.7,6.2 -13.8,9.8 -22.3999991,9.8 h -3.5 v 41.199997 h 3.5 c 31.7999991,0 58.7999991,-20.8 68.1999991,-49.599997 9.3,28.699997 36.400002,49.599997 68.200002,49.599997 h 3.5 V 87.328293 h -3.5 c -8.5,0 -16.7,-3.7 -22.4,-9.8 h 25.9 v -34.2 -7 -34.1 z m -68.1999991,7.1 H 70.720208 v 27.1 H 9.5202089 Z m 0,112.299997 V 94.328293 c 11.8999991,-1.1 22.6999991,-8 28.7999991,-18.4 l 3.1,-5.3 H 9.5202089 v -27.3 H 70.720208 v 0 13.6 c 0,34.6 -27.1,62.799997 -61.1999991,64.699997 z M 138.92021,70.628293 h -31.9 l 3.1,5.3 c 6.1,10.4 17,17.3 28.8,18.4 v 27.299997 c -34,-1.8 -61.200002,-30.099997 -61.200002,-64.599997 v -13.7 h 61.200002 z m -61.200002,-34.3 v -27 h 61.200002 v 27.1 H 77.720208 Z"
   id="path835"
   style="fill:#f00078;fill-opacity:1" />
<g
   id="g847"
   style="fill:#f00078;fill-opacity:1"
   transform="translate(-67.479792,-37.771707)">
	<path
   class="st0"
   d="m 70.9,182 h 13.8 c 4.8,0 8.3,1.1 10.5,3.4 2.2,2.2 3.3,5.7 3.3,10.3 v 3.6 c 0,6.2 -2,10.1 -6.1,11.7 v 0.2 c 2.3,0.7 3.9,2.1 4.8,4.2 0.9,2.1 1.4,4.9 1.4,8.4 v 10.4 c 0,1.7 0.1,3.1 0.2,4.1 0.1,1 0.4,2.1 0.8,3.1 h -9.5 c -0.3,-1 -0.6,-1.9 -0.7,-2.7 -0.1,-0.8 -0.2,-2.4 -0.2,-4.6 v -10.9 c 0,-2.7 -0.4,-4.6 -1.3,-5.7 -0.9,-1.1 -2.4,-1.6 -4.5,-1.6 h -3.2 v 25.5 h -9.3 z m 12.7,25.5 c 1.9,0 3.3,-0.5 4.2,-1.4 0.9,-1 1.4,-2.6 1.4,-4.8 v -4.6 c 0,-2.2 -0.4,-3.7 -1.1,-4.7 -0.8,-1 -2,-1.4 -3.6,-1.4 h -4.2 v 17 h 3.3 z"
   id="path837"
   style="fill:#f00078;fill-opacity:1" />
	<path
   class="st0"
   d="m 112.3,182 h 12.6 l 9.7,59.4 h -9.3 l -1.7,-11.8 v 0.2 H 113 l -1.7,11.6 h -8.7 z m 10.2,39.7 -4.2,-29.4 h -0.2 l -4.1,29.4 z"
   id="path839"
   style="fill:#f00078;fill-opacity:1" />
	<path
   class="st0"
   d="m 139.1,182 h 9.3 v 59.4 h -9.3 z"
   id="path841"
   style="fill:#f00078;fill-opacity:1" />
	<path
   class="st0"
   d="m 162.7,190.5 h -9.8 V 182 h 28.9 v 8.5 H 172 v 50.9 h -9.3 z"
   id="path843"
   style="fill:#f00078;fill-opacity:1" />
	<path
   class="st0"
   d="m 187.9,238.4 c -2.4,-2.6 -3.7,-6.3 -3.7,-11 v -31.2 c 0,-4.8 1.2,-8.4 3.7,-11 2.4,-2.6 5.9,-3.9 10.5,-3.9 4.6,0 8.1,1.3 10.5,3.9 2.4,2.6 3.6,6.3 3.6,11 v 31.2 c 0,4.8 -1.2,8.4 -3.6,11 -2.4,2.6 -5.9,3.9 -10.5,3.9 -4.6,0 -8.1,-1.3 -10.5,-3.9 z m 15.4,-10.5 v -32.4 c 0,-3.9 -1.6,-5.9 -4.8,-5.9 -3.2,0 -4.8,2 -4.8,5.9 v 32.4 c 0,3.9 1.6,5.9 4.8,5.9 3.2,0 4.8,-2 4.8,-5.9 z"
   id="path845"
   style="fill:#f00078;fill-opacity:1" />
</g>
</svg>
