<svg width="24" height="24" viewBox="0 0 24 24" fill="none" xmlns="http://www.w3.org/2000/svg">
<path d="M20.5862 20.5733H17.0301V15.0039C17.0301 13.6757 17.0064 11.9661 15.1806 11.9661C13.3284 11.9661 13.045 13.413 13.045 14.9071V20.5729H9.48895V9.11982H12.9028V10.685H12.9506C13.6457 9.49643 14.9429 8.7839 16.3189 8.835C19.9232 8.835 20.5878 11.2059 20.5878 14.2904L20.5862 20.5733ZM5.47646 7.55423C4.34436 7.55423 3.41235 6.62269 3.41235 5.4905C3.41235 4.35831 4.34393 3.42667 5.47603 3.42667C6.60802 3.42667 7.53949 4.3581 7.53971 5.49007C7.53971 6.62205 6.60835 7.55412 5.47646 7.55423ZM7.25448 20.5733H3.69468V9.11982H7.25448V20.5733Z" fill="#787B98"/>
</svg>
