<svg width="24" height="24" viewBox="0 0 24 24" fill="none" xmlns="http://www.w3.org/2000/svg">
<path fill-rule="evenodd" clip-rule="evenodd" d="M6.59181 1C7.08774 1 7.48977 1.40203 7.48977 1.89796V5.93878C7.48977 6.4347 7.08774 6.83673 6.59181 6.83673C6.09588 6.83673 5.69385 6.4347 5.69385 5.93878V1.89796C5.69385 1.40203 6.09588 1 6.59181 1Z" fill="#787B98"/>
<path fill-rule="evenodd" clip-rule="evenodd" d="M11.9795 1C12.4754 1 12.8775 1.40203 12.8775 1.89796V5.93878C12.8775 6.4347 12.4754 6.83673 11.9795 6.83673C11.4836 6.83673 11.0815 6.4347 11.0815 5.93878V1.89796C11.0815 1.40203 11.4836 1 11.9795 1Z" fill="#787B98"/>
<path fill-rule="evenodd" clip-rule="evenodd" d="M8.92857 14.5C9.44141 14.5 9.85714 14.9242 9.85714 15.4474V18.2895C9.85714 18.792 10.0528 19.2739 10.4011 19.6293C10.7494 19.9846 11.2217 20.1842 11.7143 20.1842C12.2068 20.1842 12.6792 19.9846 13.0275 19.6293C13.3758 19.2739 13.5714 18.792 13.5714 18.2895C13.5714 17.2844 13.9628 16.3206 14.6593 15.6099C15.3559 14.8992 16.3006 14.5 17.2857 14.5C18.2708 14.5 19.2155 14.8992 19.9121 15.6099C20.6087 16.3206 21 17.2844 21 18.2895V22.5526C21 23.0758 20.5843 23.5 20.0714 23.5C19.5586 23.5 19.1429 23.0758 19.1429 22.5526V18.2895C19.1429 17.787 18.9472 17.305 18.5989 16.9497C18.2506 16.5944 17.7783 16.3947 17.2857 16.3947C16.7932 16.3947 16.3208 16.5944 15.9725 16.9497C15.6242 17.305 15.4286 17.787 15.4286 18.2895C15.4286 19.2945 15.0372 20.2584 14.3407 20.969C13.6441 21.6797 12.6994 22.0789 11.7143 22.0789C10.7292 22.0789 9.78445 21.6797 9.08789 20.969C8.39132 20.2584 8 19.2945 8 18.2895V15.4474C8 14.9242 8.41574 14.5 8.92857 14.5Z" fill="#787B98"/>
<path fill-rule="evenodd" clip-rule="evenodd" d="M5.2449 5.04077C4.64951 5.04077 4.07852 5.27729 3.65752 5.69829C3.23652 6.11929 3 6.69029 3 7.28567V9.97955C3 11.6466 3.66224 13.2454 4.84104 14.4242C6.01984 15.603 7.61864 16.2653 9.28571 16.2653C10.9528 16.2653 12.5516 15.603 13.7304 14.4242C14.9092 13.2454 15.5714 11.6466 15.5714 9.97955V7.28567C15.5714 6.69029 15.3349 6.11929 14.9139 5.69829C14.4929 5.27729 13.9219 5.04077 13.3265 5.04077H5.2449ZM7.93885 7.86945C7.44292 7.86945 7.04089 8.27148 7.04089 8.76741C7.04089 9.26333 7.44292 9.66536 7.93885 9.66536H10.6327C11.1287 9.66536 11.5307 9.26333 11.5307 8.76741C11.5307 8.27148 11.1287 7.86945 10.6327 7.86945H7.93885Z" fill="#787B98"/>
</svg>
